<?xml version="1.0" encoding="UTF-8"?>
<svg xmlns="http://www.w3.org/2000/svg" xmlns:xlink="http://www.w3.org/1999/xlink" width="88px" height="24px" viewBox="0 0 88 24" version="1.1">
<g id="surface1">
<path style=" stroke:none;fill-rule:nonzero;fill:rgb(98.431373%,98.431373%,98.431373%);fill-opacity:1;" d="M 0 0 C 29.039062 0 58.078125 0 88 0 C 88 7.921875 88 15.839844 88 24 C 58.960938 24 29.921875 24 0 24 C 0 16.078125 0 8.160156 0 0 Z M 0 0 "/>
<path style=" stroke:none;fill-rule:nonzero;fill:rgb(0.784314%,0.784314%,0.784314%);fill-opacity:1;" d="M 1.945312 1.953125 C 15.761719 1.953125 29.574219 1.953125 43.804688 1.953125 C 43.804688 3.304688 43.804688 4.65625 43.804688 6.046875 C 42.199219 6.046875 40.59375 6.046875 38.9375 6.046875 C 38.9375 9.589844 38.9375 13.132812 38.9375 16.78125 C 40.542969 16.78125 42.152344 16.78125 43.804688 16.78125 C 43.804688 18.390625 43.804688 20 43.804688 21.660156 C 29.992188 21.660156 16.179688 21.660156 1.945312 21.660156 C 1.945312 15.15625 1.945312 8.652344 1.945312 1.953125 Z M 1.945312 1.953125 "/>
<path style=" stroke:none;fill-rule:nonzero;fill:rgb(5.490196%,5.490196%,5.490196%);fill-opacity:1;" d="M 39.523438 6.632812 C 42.414062 6.632812 45.304688 6.632812 48.28125 6.632812 C 48.28125 9.726562 48.28125 12.816406 48.28125 16 C 45.390625 16 42.5 16 39.523438 16 C 39.523438 12.910156 39.523438 9.820312 39.523438 6.632812 Z M 39.523438 6.632812 "/>
<path style=" stroke:none;fill-rule:nonzero;fill:rgb(11.372549%,11.372549%,11.372549%);fill-opacity:1;" d="M 0 0 C 29.039062 0 58.078125 0 88 0 C 88 7.921875 88 15.839844 88 24 C 58.960938 24 29.921875 24 0 24 C 0 23.871094 0 23.742188 0 23.609375 C 28.910156 23.609375 57.824219 23.609375 87.609375 23.609375 C 87.609375 15.882812 87.609375 8.15625 87.609375 0.195312 C 58.699219 0.195312 29.789062 0.195312 0 0.195312 C 0 0.128906 0 0.0664062 0 0 Z M 0 0 "/>
<path style=" stroke:none;fill-rule:nonzero;fill:rgb(4.705882%,4.705882%,4.705882%);fill-opacity:1;" d="M 75.539062 8.390625 C 76.222656 8.375 76.90625 8.359375 77.609375 8.339844 C 77.820312 8.335938 78.035156 8.328125 78.253906 8.320312 C 79.417969 8.308594 80.121094 8.363281 80.992188 9.171875 C 81.179688 9.734375 81.222656 10.132812 81.234375 10.71875 C 81.238281 10.886719 81.246094 11.054688 81.25 11.226562 C 81.171875 11.804688 81 12.070312 80.601562 12.488281 C 80.472656 12.488281 80.34375 12.488281 80.210938 12.488281 C 80.277344 12.875 80.339844 13.261719 80.40625 13.660156 C 80.535156 13.660156 80.664062 13.660156 80.796875 13.660156 C 81.082031 14.175781 81.1875 14.417969 81.1875 15.023438 C 80.480469 15.023438 79.773438 15.023438 79.042969 15.023438 C 78.867188 14.574219 78.6875 14.121094 78.511719 13.671875 C 78.273438 13.171875 78.273438 13.171875 77.488281 13.074219 C 77.488281 13.71875 77.488281 14.359375 77.488281 15.023438 C 76.84375 15.023438 76.203125 15.023438 75.539062 15.023438 C 75.539062 12.835938 75.539062 10.644531 75.539062 8.390625 Z M 75.539062 8.390625 "/>
<path style=" stroke:none;fill-rule:nonzero;fill:rgb(2.745098%,2.745098%,2.745098%);fill-opacity:1;" d="M 62.496094 8.390625 C 63.074219 8.390625 63.652344 8.390625 64.246094 8.390625 C 64.246094 9.164062 64.246094 9.9375 64.246094 10.730469 C 64.953125 10.730469 65.660156 10.730469 66.390625 10.730469 C 66.390625 9.960938 66.390625 9.1875 66.390625 8.390625 C 67.03125 8.390625 67.675781 8.390625 68.335938 8.390625 C 68.335938 10.578125 68.335938 12.769531 68.335938 15.023438 C 67.695312 15.023438 67.050781 15.023438 66.390625 15.023438 C 66.390625 14.1875 66.390625 13.351562 66.390625 12.488281 C 65.746094 12.488281 65.105469 12.488281 64.441406 12.488281 C 64.441406 13.324219 64.441406 14.160156 64.441406 15.023438 C 63.800781 15.023438 63.15625 15.023438 62.496094 15.023438 C 62.496094 12.835938 62.496094 10.644531 62.496094 8.390625 Z M 62.496094 8.390625 "/>
<path style=" stroke:none;fill-rule:nonzero;fill:rgb(3.921569%,3.921569%,3.921569%);fill-opacity:1;" d="M 55.875 8.390625 C 56.460938 8.382812 57.046875 8.375 57.652344 8.367188 C 57.835938 8.363281 58.019531 8.359375 58.207031 8.355469 C 59.125 8.347656 59.886719 8.398438 60.742188 8.78125 C 61.433594 9.519531 61.382812 10.28125 61.367188 11.238281 C 61.296875 12.074219 61.296875 12.074219 61.132812 12.488281 C 60.109375 13.34375 59.125 13.582031 57.824219 13.464844 C 57.824219 13.980469 57.824219 14.492188 57.824219 15.023438 C 57.179688 15.023438 56.539062 15.023438 55.875 15.023438 C 55.875 12.835938 55.875 10.644531 55.875 8.390625 Z M 55.875 8.390625 "/>
<path style=" stroke:none;fill-rule:nonzero;fill:rgb(6.27451%,6.27451%,6.27451%);fill-opacity:1;" d="M 52.957031 8.195312 C 53.722656 8.578125 54.285156 9 54.707031 9.757812 C 54.707031 10.011719 54.707031 10.269531 54.707031 10.535156 C 54.425781 10.550781 54.140625 10.5625 53.855469 10.574219 C 53.699219 10.578125 53.539062 10.585938 53.378906 10.59375 C 53.238281 10.574219 53.097656 10.554688 52.957031 10.535156 C 52.828125 10.34375 52.699219 10.148438 52.566406 9.953125 C 51.96875 9.808594 51.96875 9.808594 51.398438 9.757812 C 51.414062 10.136719 51.414062 10.136719 51.59375 10.535156 C 52.0625 10.789062 52.0625 10.789062 52.628906 10.953125 C 53.96875 11.386719 53.96875 11.386719 54.511719 11.707031 C 54.753906 12.1875 54.746094 12.527344 54.757812 13.0625 C 54.761719 13.230469 54.765625 13.402344 54.773438 13.578125 C 54.695312 14.140625 54.558594 14.285156 54.125 14.632812 C 53.996094 14.742188 53.867188 14.851562 53.734375 14.964844 C 52.847656 15.351562 51.960938 15.300781 51.007812 15.21875 C 50.878906 15.15625 50.75 15.089844 50.621094 15.023438 C 50.621094 14.894531 50.621094 14.765625 50.621094 14.632812 C 50.4375 14.617188 50.4375 14.617188 50.253906 14.597656 C 49.839844 14.4375 49.839844 14.4375 49.597656 13.976562 C 49.453125 13.464844 49.453125 13.464844 49.453125 12.878906 C 50.09375 12.878906 50.734375 12.878906 51.398438 12.878906 C 51.460938 13.070312 51.527344 13.265625 51.59375 13.464844 C 51.976562 13.464844 52.363281 13.464844 52.761719 13.464844 C 52.761719 13.207031 52.761719 12.949219 52.761719 12.683594 C 52.605469 12.652344 52.445312 12.625 52.285156 12.597656 C 50.371094 12.195312 50.371094 12.195312 49.792969 11.574219 C 49.339844 10.710938 49.296875 10.328125 49.453125 9.367188 C 50.472656 8.101562 51.402344 8.035156 52.957031 8.195312 Z M 52.957031 8.195312 "/>
<path style=" stroke:none;fill-rule:nonzero;fill:rgb(5.882353%,5.882353%,5.882353%);fill-opacity:1;" d="M 82.355469 8.390625 C 83.894531 8.390625 85.4375 8.390625 87.027344 8.390625 C 87.027344 8.90625 87.027344 9.421875 87.027344 9.953125 C 86.128906 9.953125 85.226562 9.953125 84.300781 9.953125 C 84.300781 10.273438 84.300781 10.59375 84.300781 10.925781 C 85.136719 10.925781 85.972656 10.925781 86.832031 10.925781 C 86.832031 11.441406 86.832031 11.957031 86.832031 12.488281 C 85.996094 12.488281 85.160156 12.488281 84.300781 12.488281 C 84.300781 12.808594 84.300781 13.132812 84.300781 13.464844 C 85.265625 13.464844 86.226562 13.464844 87.222656 13.464844 C 87.222656 13.980469 87.222656 14.492188 87.222656 15.023438 C 85.613281 15.023438 84.007812 15.023438 82.355469 15.023438 C 82.355469 12.835938 82.355469 10.644531 82.355469 8.390625 Z M 82.355469 8.390625 "/>
<path style=" stroke:none;fill-rule:nonzero;fill:rgb(2.745098%,2.745098%,2.745098%);fill-opacity:1;" d="M 69.699219 8.390625 C 71.175781 8.390625 72.65625 8.390625 74.175781 8.390625 C 74.175781 8.839844 74.175781 9.292969 74.175781 9.757812 C 73.339844 9.757812 72.507812 9.757812 71.644531 9.757812 C 71.644531 10.140625 71.644531 10.527344 71.644531 10.925781 C 72.417969 10.925781 73.1875 10.925781 73.980469 10.925781 C 73.980469 11.441406 73.980469 11.957031 73.980469 12.488281 C 73.210938 12.488281 72.441406 12.488281 71.644531 12.488281 C 71.644531 12.808594 71.644531 13.132812 71.644531 13.464844 C 72.546875 13.464844 73.445312 13.464844 74.371094 13.464844 C 74.371094 13.980469 74.371094 14.492188 74.371094 15.023438 C 72.828125 15.023438 71.289062 15.023438 69.699219 15.023438 C 69.699219 12.835938 69.699219 10.644531 69.699219 8.390625 Z M 69.699219 8.390625 "/>
<path style=" stroke:none;fill-rule:nonzero;fill:rgb(85.882353%,85.882353%,85.882353%);fill-opacity:1;" d="M 24.140625 7.804688 C 24.460938 7.804688 24.785156 7.804688 25.113281 7.804688 C 25.113281 7.933594 25.113281 8.0625 25.113281 8.195312 C 25.308594 8.257812 25.5 8.324219 25.699219 8.390625 C 26.054688 8.863281 26.054688 8.863281 26.417969 9.453125 C 26.539062 9.644531 26.660156 9.835938 26.785156 10.035156 C 27.0625 10.535156 27.0625 10.535156 27.0625 10.925781 C 27.191406 10.925781 27.320312 10.925781 27.453125 10.925781 C 28.230469 11.984375 28.230469 11.984375 28.230469 12.488281 C 28.359375 12.488281 28.488281 12.488281 28.621094 12.488281 C 28.621094 10.941406 28.621094 9.398438 28.621094 7.804688 C 28.941406 7.804688 29.261719 7.804688 29.59375 7.804688 C 29.59375 9.996094 29.59375 12.183594 29.59375 14.4375 C 29.273438 14.4375 28.949219 14.4375 28.621094 14.4375 C 28.335938 14.152344 28.335938 14.152344 28.097656 13.730469 C 27.570312 12.867188 27.007812 12.042969 26.417969 11.21875 C 26.332031 11.097656 26.242188 10.976562 26.15625 10.851562 C 25.761719 10.28125 25.761719 10.28125 25.308594 9.757812 C 25.246094 11.300781 25.179688 12.847656 25.113281 14.4375 C 24.792969 14.4375 24.472656 14.4375 24.140625 14.4375 C 24.140625 12.25 24.140625 10.058594 24.140625 7.804688 Z M 24.140625 7.804688 "/>
<path style=" stroke:none;fill-rule:nonzero;fill:rgb(91.372549%,91.372549%,91.372549%);fill-opacity:1;" d="M 69.699219 8.195312 C 71.242188 8.195312 72.78125 8.195312 74.371094 8.195312 C 74.4375 8.515625 74.5 8.839844 74.566406 9.171875 C 74.886719 8.914062 75.207031 8.65625 75.539062 8.390625 C 75.539062 10.578125 75.539062 12.769531 75.539062 15.023438 C 75.410156 14.960938 75.28125 14.894531 75.152344 14.828125 C 75.023438 14.957031 74.894531 15.085938 74.761719 15.21875 C 74.632812 15.15625 74.503906 15.089844 74.371094 15.023438 C 74.371094 14.507812 74.371094 13.996094 74.371094 13.464844 C 73.472656 13.464844 72.574219 13.464844 71.644531 13.464844 C 71.644531 13.140625 71.644531 12.820312 71.644531 12.488281 C 72.417969 12.488281 73.1875 12.488281 73.980469 12.488281 C 73.980469 11.972656 73.980469 11.457031 73.980469 10.925781 C 73.210938 10.925781 72.441406 10.925781 71.644531 10.925781 C 71.644531 10.539062 71.644531 10.152344 71.644531 9.757812 C 72.480469 9.757812 73.316406 9.757812 74.175781 9.757812 C 74.175781 9.304688 74.175781 8.855469 74.175781 8.390625 C 72.699219 8.390625 71.222656 8.390625 69.699219 8.390625 C 69.699219 8.324219 69.699219 8.261719 69.699219 8.195312 Z M 69.699219 8.195312 "/>
<path style=" stroke:none;fill-rule:nonzero;fill:rgb(86.666667%,86.666667%,86.666667%);fill-opacity:1;" d="M 32.125 7.804688 C 33.472656 7.804688 34.824219 7.804688 36.210938 7.804688 C 36.210938 8.0625 36.210938 8.320312 36.210938 8.585938 C 35.121094 8.585938 34.027344 8.585938 32.902344 8.585938 C 32.902344 9.292969 32.902344 10 32.902344 10.730469 C 33.929688 10.730469 34.957031 10.730469 36.019531 10.730469 C 36.019531 10.988281 36.019531 11.246094 36.019531 11.511719 C 35.054688 11.511719 34.089844 11.511719 33.097656 11.511719 C 33.097656 12.21875 33.097656 12.929688 33.097656 13.660156 C 34.191406 13.660156 35.28125 13.660156 36.40625 13.660156 C 36.40625 13.917969 36.40625 14.171875 36.40625 14.4375 C 34.992188 14.4375 33.582031 14.4375 32.125 14.4375 C 32.125 12.25 32.125 10.058594 32.125 7.804688 Z M 32.125 7.804688 "/>
<path style=" stroke:none;fill-rule:nonzero;fill:rgb(94.117647%,94.117647%,94.117647%);fill-opacity:1;" d="M 16.546875 7.804688 C 16.804688 7.804688 17.0625 7.804688 17.328125 7.804688 C 17.332031 7.941406 17.332031 8.078125 17.335938 8.21875 C 17.351562 8.839844 17.371094 9.464844 17.386719 10.085938 C 17.394531 10.300781 17.398438 10.515625 17.402344 10.738281 C 17.410156 10.945312 17.414062 11.152344 17.421875 11.367188 C 17.425781 11.558594 17.433594 11.75 17.4375 11.945312 C 17.535156 12.582031 17.710938 12.957031 18.105469 13.464844 C 19.050781 13.617188 19.386719 13.644531 20.191406 13.117188 C 20.871094 12.160156 20.789062 11.234375 20.796875 10.085938 C 20.800781 9.867188 20.804688 9.648438 20.808594 9.421875 C 20.820312 8.882812 20.828125 8.34375 20.832031 7.804688 C 21.089844 7.804688 21.347656 7.804688 21.609375 7.804688 C 21.632812 8.554688 21.648438 9.300781 21.660156 10.046875 C 21.667969 10.363281 21.667969 10.363281 21.679688 10.6875 C 21.695312 12.035156 21.570312 12.910156 20.832031 14.046875 C 20 14.605469 19.277344 14.535156 18.300781 14.4375 C 17.496094 14.222656 17.023438 13.980469 16.546875 13.269531 C 16.503906 12.699219 16.503906 12.699219 16.511719 12.015625 C 16.511719 11.769531 16.511719 11.527344 16.515625 11.273438 C 16.519531 11.019531 16.519531 10.761719 16.523438 10.5 C 16.527344 10.238281 16.527344 9.980469 16.53125 9.71875 C 16.535156 9.082031 16.539062 8.441406 16.546875 7.804688 Z M 16.546875 7.804688 "/>
<path style=" stroke:none;fill-rule:nonzero;fill:rgb(4.313725%,4.313725%,4.313725%);fill-opacity:1;" d="M 52.957031 8.195312 C 53.722656 8.578125 54.285156 9 54.707031 9.757812 C 54.707031 10.011719 54.707031 10.269531 54.707031 10.535156 C 54.425781 10.550781 54.140625 10.5625 53.855469 10.574219 C 53.699219 10.578125 53.539062 10.585938 53.378906 10.59375 C 53.238281 10.574219 53.097656 10.554688 52.957031 10.535156 C 52.828125 10.34375 52.699219 10.148438 52.566406 9.953125 C 51.96875 9.808594 51.96875 9.808594 51.398438 9.757812 C 51.511719 10.316406 51.566406 10.507812 51.980469 10.925781 C 51.917969 11.054688 51.855469 11.183594 51.789062 11.316406 C 51.53125 11.253906 51.273438 11.1875 51.007812 11.121094 C 51.074219 11.445312 51.136719 11.765625 51.203125 12.097656 C 50.554688 12.042969 50.269531 11.9375 49.78125 11.5 C 49.359375 10.765625 49.253906 10.195312 49.453125 9.367188 C 50.472656 8.101562 51.402344 8.035156 52.957031 8.195312 Z M 52.957031 8.195312 "/>
<path style=" stroke:none;fill-rule:nonzero;fill:rgb(94.509804%,94.509804%,94.509804%);fill-opacity:1;" d="M 38.9375 6.046875 C 39.417969 6.144531 39.417969 6.144531 39.910156 6.242188 C 39.976562 6.371094 40.039062 6.5 40.105469 6.632812 C 39.914062 6.632812 39.722656 6.632812 39.523438 6.632812 C 39.523438 9.726562 39.523438 12.816406 39.523438 16 C 42.347656 16 45.175781 16 48.089844 16 C 48.089844 16.0625 48.089844 16.128906 48.089844 16.195312 C 46.609375 16.257812 45.132812 16.324219 43.609375 16.390625 C 43.675781 16.519531 43.738281 16.648438 43.804688 16.78125 C 42.199219 16.78125 40.59375 16.78125 38.9375 16.78125 C 38.9375 13.238281 38.9375 9.699219 38.9375 6.046875 Z M 38.9375 6.046875 "/>
<path style=" stroke:none;fill-rule:nonzero;fill:rgb(92.941176%,92.941176%,92.941176%);fill-opacity:1;" d="M 9.152344 7.804688 C 10.949219 7.804688 12.75 7.804688 14.601562 7.804688 C 14.601562 8.0625 14.601562 8.320312 14.601562 8.585938 C 13.832031 8.585938 13.058594 8.585938 12.265625 8.585938 C 12.265625 10.515625 12.265625 12.449219 12.265625 14.4375 C 12.007812 14.4375 11.75 14.4375 11.488281 14.4375 C 11.488281 12.507812 11.488281 10.574219 11.488281 8.585938 C 10.714844 8.585938 9.945312 8.585938 9.152344 8.585938 C 9.152344 8.328125 9.152344 8.070312 9.152344 7.804688 Z M 9.152344 7.804688 "/>
<path style=" stroke:none;fill-rule:nonzero;fill:rgb(88.235294%,88.235294%,88.235294%);fill-opacity:1;" d="M 41.664062 8.78125 C 42.820312 8.78125 43.976562 8.78125 45.167969 8.78125 C 45.167969 8.972656 45.167969 9.167969 45.167969 9.367188 C 45.296875 9.367188 45.425781 9.367188 45.558594 9.367188 C 45.558594 9.558594 45.558594 9.753906 45.558594 9.953125 C 45.429688 9.953125 45.300781 9.953125 45.167969 9.953125 C 45.167969 10.273438 45.167969 10.59375 45.167969 10.925781 C 44.976562 10.863281 44.78125 10.796875 44.585938 10.730469 C 44.585938 10.472656 44.585938 10.214844 44.585938 9.953125 C 44.457031 9.953125 44.328125 9.953125 44.195312 9.953125 C 44.195312 9.757812 44.195312 9.566406 44.195312 9.367188 C 43.550781 9.367188 42.910156 9.367188 42.246094 9.367188 C 42.246094 9.882812 42.246094 10.394531 42.246094 10.925781 C 42.523438 10.957031 42.523438 10.957031 42.808594 10.988281 C 43.757812 11.121094 44.644531 11.417969 45.558594 11.707031 C 45.558594 12.480469 45.558594 13.253906 45.558594 14.046875 C 45.363281 14.046875 45.171875 14.046875 44.972656 14.046875 C 44.949219 14.171875 44.925781 14.296875 44.902344 14.425781 C 44.839844 14.625 44.839844 14.625 44.777344 14.828125 C 44.648438 14.894531 44.523438 14.957031 44.390625 15.023438 C 44.390625 14.1875 44.390625 13.351562 44.390625 12.488281 C 44.519531 12.550781 44.644531 12.617188 44.777344 12.683594 C 44.777344 12.488281 44.777344 12.296875 44.777344 12.097656 C 44.621094 12.0625 44.460938 12.027344 44.296875 11.988281 C 44.085938 11.941406 43.875 11.890625 43.660156 11.839844 C 43.453125 11.792969 43.242188 11.746094 43.03125 11.699219 C 42.4375 11.511719 42.085938 11.382812 41.664062 10.925781 C 41.558594 10.199219 41.628906 9.519531 41.664062 8.78125 Z M 41.664062 8.78125 "/>
<path style=" stroke:none;fill-rule:nonzero;fill:rgb(18.823529%,18.823529%,18.823529%);fill-opacity:1;" d="M 42.054688 11.316406 C 42.953125 11.511719 43.851562 11.703125 44.777344 11.902344 C 44.84375 12.222656 44.90625 12.546875 44.972656 12.878906 C 44.84375 12.8125 44.714844 12.75 44.585938 12.683594 C 44.578125 13.03125 44.574219 13.382812 44.570312 13.730469 C 44.570312 13.925781 44.566406 14.121094 44.566406 14.320312 C 44.550781 14.828125 44.550781 14.828125 44.777344 15.21875 C 44.585938 15.21875 44.394531 15.21875 44.195312 15.21875 C 44.195312 14.960938 44.195312 14.703125 44.195312 14.4375 C 43.488281 14.375 42.78125 14.308594 42.054688 14.242188 C 42.054688 13.277344 42.054688 12.3125 42.054688 11.316406 Z M 42.054688 11.316406 "/>
<path style=" stroke:none;fill-rule:nonzero;fill:rgb(92.156863%,92.156863%,92.156863%);fill-opacity:1;" d="M 48.867188 6.242188 C 48.929688 6.242188 48.996094 6.242188 49.0625 6.242188 C 49.125 7.46875 49.191406 8.691406 49.257812 9.953125 C 49.320312 9.953125 49.386719 9.953125 49.453125 9.953125 C 49.503906 10.128906 49.554688 10.304688 49.609375 10.488281 C 49.832031 11.097656 49.984375 11.4375 50.425781 11.902344 C 50.996094 12.121094 50.996094 12.121094 51.628906 12.242188 C 51.839844 12.292969 52.050781 12.339844 52.269531 12.386719 C 52.433594 12.421875 52.59375 12.453125 52.761719 12.488281 C 52.835938 12.8125 52.898438 13.136719 52.957031 13.464844 C 52.761719 13.660156 52.761719 13.660156 52.164062 13.671875 C 51.976562 13.667969 51.789062 13.664062 51.59375 13.660156 C 51.527344 13.402344 51.464844 13.144531 51.398438 12.878906 C 50.753906 12.878906 50.113281 12.878906 49.453125 12.878906 C 49.515625 13.199219 49.578125 13.523438 49.644531 13.855469 C 49.324219 13.789062 49.003906 13.726562 48.671875 13.660156 C 48.738281 11.210938 48.800781 8.765625 48.867188 6.242188 Z M 48.867188 6.242188 "/>
<path style=" stroke:none;fill-rule:nonzero;fill:rgb(10.588235%,10.588235%,10.588235%);fill-opacity:1;" d="M 52.957031 8.195312 C 53.722656 8.578125 54.285156 9 54.707031 9.757812 C 54.707031 10.011719 54.707031 10.269531 54.707031 10.535156 C 54.425781 10.550781 54.140625 10.5625 53.855469 10.574219 C 53.699219 10.578125 53.539062 10.585938 53.378906 10.59375 C 53.238281 10.574219 53.097656 10.554688 52.957031 10.535156 C 52.828125 10.34375 52.699219 10.148438 52.566406 9.953125 C 51.96875 9.808594 51.96875 9.808594 51.398438 9.757812 C 51.332031 10.011719 51.269531 10.269531 51.203125 10.535156 C 51.167969 10.074219 51.167969 10.074219 51.203125 9.5625 C 51.394531 9.433594 51.589844 9.304688 51.789062 9.171875 C 51.789062 9.300781 51.789062 9.429688 51.789062 9.5625 C 52.109375 9.496094 52.429688 9.433594 52.761719 9.367188 C 52.824219 9.171875 52.890625 8.980469 52.957031 8.78125 C 52.375 8.789062 52.375 8.789062 51.796875 8.800781 C 51.398438 8.78125 51.398438 8.78125 50.8125 8.585938 C 50.8125 8.90625 50.8125 9.230469 50.8125 9.5625 C 50.488281 9.5625 50.164062 9.5625 49.839844 9.5625 C 49.777344 10.011719 49.710938 10.460938 49.644531 10.925781 C 49.582031 10.925781 49.515625 10.925781 49.453125 10.925781 C 49.332031 9.515625 49.332031 9.515625 49.914062 8.792969 C 50.875 8.035156 51.761719 8.070312 52.957031 8.195312 Z M 52.957031 8.195312 "/>
<path style=" stroke:none;fill-rule:nonzero;fill:rgb(99.215686%,99.215686%,99.215686%);fill-opacity:1;" d="M 11.679688 8.78125 C 11.875 8.78125 12.066406 8.78125 12.265625 8.78125 C 12.265625 10.648438 12.265625 12.515625 12.265625 14.4375 C 12.007812 14.4375 11.75 14.4375 11.488281 14.4375 C 11.480469 13.664062 11.476562 12.890625 11.476562 12.117188 C 11.476562 11.851562 11.472656 11.589844 11.472656 11.324219 C 11.46875 10.945312 11.46875 10.566406 11.46875 10.191406 C 11.464844 9.960938 11.464844 9.734375 11.464844 9.5 C 11.488281 8.976562 11.488281 8.976562 11.679688 8.78125 Z M 11.679688 8.78125 "/>
<path style=" stroke:none;fill-rule:nonzero;fill:rgb(3.137255%,3.137255%,3.137255%);fill-opacity:1;" d="M 1.945312 1.953125 C 2.726562 2.144531 2.726562 2.144531 3.113281 2.535156 C 2.847656 2.828125 2.847656 2.828125 2.53125 3.121094 C 2.402344 3.121094 2.273438 3.121094 2.140625 3.121094 C 2.140625 8.851562 2.140625 14.582031 2.140625 20.488281 C 2.078125 20.488281 2.011719 20.488281 1.945312 20.488281 C 1.945312 14.371094 1.945312 8.253906 1.945312 1.953125 Z M 1.945312 1.953125 "/>
<path style=" stroke:none;fill-rule:nonzero;fill:rgb(98.823529%,98.823529%,98.823529%);fill-opacity:1;" d="M 20.832031 7.804688 C 21.089844 7.804688 21.347656 7.804688 21.609375 7.804688 C 21.621094 8.574219 21.628906 9.339844 21.636719 10.109375 C 21.636719 10.328125 21.640625 10.546875 21.644531 10.773438 C 21.644531 10.980469 21.648438 11.191406 21.648438 11.40625 C 21.652344 11.597656 21.652344 11.792969 21.65625 11.992188 C 21.609375 12.488281 21.609375 12.488281 21.222656 13.074219 C 21.222656 12.945312 21.222656 12.816406 21.222656 12.683594 C 21.09375 12.683594 20.964844 12.683594 20.832031 12.683594 C 20.832031 11.074219 20.832031 9.464844 20.832031 7.804688 Z M 20.832031 7.804688 "/>
<path style=" stroke:none;fill-rule:nonzero;fill:rgb(7.058824%,7.058824%,7.058824%);fill-opacity:1;" d="M 42.246094 9.367188 C 42.890625 9.367188 43.53125 9.367188 44.195312 9.367188 C 44.195312 9.558594 44.195312 9.753906 44.195312 9.953125 C 44.324219 9.953125 44.453125 9.953125 44.585938 9.953125 C 44.585938 10.335938 44.585938 10.722656 44.585938 11.121094 C 43.8125 11.058594 43.042969 10.992188 42.246094 10.925781 C 42.246094 10.410156 42.246094 9.898438 42.246094 9.367188 Z M 42.246094 9.367188 "/>
<path style=" stroke:none;fill-rule:nonzero;fill:rgb(67.058824%,67.058824%,67.058824%);fill-opacity:1;" d="M 41.664062 8.78125 C 42.820312 8.78125 43.976562 8.78125 45.167969 8.78125 C 45.167969 8.972656 45.167969 9.167969 45.167969 9.367188 C 45.296875 9.367188 45.425781 9.367188 45.558594 9.367188 C 45.558594 9.558594 45.558594 9.753906 45.558594 9.953125 C 45.429688 9.953125 45.300781 9.953125 45.167969 9.953125 C 45.167969 10.273438 45.167969 10.59375 45.167969 10.925781 C 44.976562 10.863281 44.78125 10.796875 44.585938 10.730469 C 44.585938 10.472656 44.585938 10.214844 44.585938 9.953125 C 44.457031 9.953125 44.328125 9.953125 44.195312 9.953125 C 44.195312 9.757812 44.195312 9.566406 44.195312 9.367188 C 43.550781 9.367188 42.910156 9.367188 42.246094 9.367188 C 42.246094 9.882812 42.246094 10.394531 42.246094 10.925781 C 42.183594 10.925781 42.121094 10.925781 42.054688 10.925781 C 42.054688 10.800781 42.058594 10.679688 42.058594 10.550781 C 42.0625 10.386719 42.0625 10.226562 42.066406 10.0625 C 42.070312 9.820312 42.070312 9.820312 42.070312 9.574219 C 42.097656 9.171875 42.097656 9.171875 41.859375 8.976562 C 41.859375 9.621094 41.859375 10.261719 41.859375 10.925781 C 41.792969 10.925781 41.730469 10.925781 41.664062 10.925781 C 41.664062 10.21875 41.664062 9.511719 41.664062 8.78125 Z M 41.664062 8.78125 "/>
<path style=" stroke:none;fill-rule:nonzero;fill:rgb(88.627451%,88.627451%,88.627451%);fill-opacity:1;" d="M 26.089844 9.367188 C 26.632812 9.859375 26.957031 10.1875 27.0625 10.925781 C 27.191406 10.925781 27.320312 10.925781 27.453125 10.925781 C 28.230469 11.984375 28.230469 11.984375 28.230469 12.488281 C 28.101562 12.488281 27.972656 12.488281 27.839844 12.488281 C 27.777344 12.617188 27.710938 12.746094 27.644531 12.878906 C 26.875 11.847656 26.105469 10.816406 25.308594 9.757812 C 25.566406 9.628906 25.824219 9.5 26.089844 9.367188 Z M 26.089844 9.367188 "/>
<path style=" stroke:none;fill-rule:nonzero;fill:rgb(84.313725%,84.313725%,84.313725%);fill-opacity:1;" d="M 57.824219 9.953125 C 58.335938 9.953125 58.851562 9.953125 59.378906 9.953125 C 59.503906 10.609375 59.503906 10.609375 59.574219 11.316406 C 59.1875 11.707031 59.1875 11.707031 58.480469 11.730469 C 58.261719 11.722656 58.046875 11.714844 57.824219 11.707031 C 57.824219 11.128906 57.824219 10.546875 57.824219 9.953125 Z M 57.824219 9.953125 "/>
<path style=" stroke:none;fill-rule:nonzero;fill:rgb(88.235294%,88.235294%,88.235294%);fill-opacity:1;" d="M 77.488281 9.953125 C 78.066406 9.953125 78.644531 9.953125 79.238281 9.953125 C 79.070312 11.292969 79.070312 11.292969 78.847656 11.511719 C 78.394531 11.519531 77.941406 11.519531 77.488281 11.511719 C 77.488281 10.996094 77.488281 10.480469 77.488281 9.953125 Z M 77.488281 9.953125 "/>
<path style=" stroke:none;fill-rule:nonzero;fill:rgb(83.137255%,83.137255%,83.137255%);fill-opacity:1;" d="M 84.300781 9.953125 C 85.199219 9.953125 86.101562 9.953125 87.027344 9.953125 C 87.089844 10.144531 87.15625 10.335938 87.222656 10.535156 C 87.027344 10.535156 86.835938 10.535156 86.636719 10.535156 C 86.636719 10.664062 86.636719 10.792969 86.636719 10.925781 C 85.867188 10.925781 85.09375 10.925781 84.300781 10.925781 C 84.300781 10.605469 84.300781 10.28125 84.300781 9.953125 Z M 84.300781 9.953125 "/>
<path style=" stroke:none;fill-rule:nonzero;fill:rgb(78.039216%,78.039216%,78.039216%);fill-opacity:1;" d="M 42.246094 11.902344 C 42.441406 11.902344 42.632812 11.902344 42.832031 11.902344 C 42.832031 12.417969 42.832031 12.933594 42.832031 13.464844 C 43.28125 13.464844 43.730469 13.464844 44.195312 13.464844 C 44.195312 13.65625 44.195312 13.851562 44.195312 14.046875 C 43.550781 14.046875 42.910156 14.046875 42.246094 14.046875 C 42.246094 13.339844 42.246094 12.632812 42.246094 11.902344 Z M 42.246094 11.902344 "/>
<path style=" stroke:none;fill-rule:nonzero;fill:rgb(98.823529%,98.823529%,98.823529%);fill-opacity:1;" d="M 32.707031 7.804688 C 33.863281 7.804688 35.019531 7.804688 36.210938 7.804688 C 36.210938 8 36.210938 8.191406 36.210938 8.390625 C 35.25 8.390625 34.285156 8.390625 33.292969 8.390625 C 33.292969 8.261719 33.292969 8.132812 33.292969 8 C 33.097656 7.9375 32.90625 7.871094 32.707031 7.804688 Z M 32.707031 7.804688 "/>
<path style=" stroke:none;fill-rule:nonzero;fill:rgb(66.666667%,66.666667%,66.666667%);fill-opacity:1;" d="M 44.777344 11.902344 C 44.90625 11.902344 45.035156 11.902344 45.167969 11.902344 C 45.277344 14.21875 45.277344 14.21875 44.585938 15.023438 C 44.519531 15.023438 44.457031 15.023438 44.390625 15.023438 C 44.390625 14.1875 44.390625 13.351562 44.390625 12.488281 C 44.582031 12.585938 44.582031 12.585938 44.777344 12.683594 C 44.777344 12.425781 44.777344 12.167969 44.777344 11.902344 Z M 44.777344 11.902344 "/>
<path style=" stroke:none;fill-rule:nonzero;fill:rgb(85.098039%,85.098039%,85.098039%);fill-opacity:1;" d="M 20.636719 12.488281 C 20.828125 12.550781 21.023438 12.617188 21.222656 12.683594 C 21.125 13.402344 21.007812 13.777344 20.441406 14.242188 C 20.25 14.113281 20.058594 13.988281 19.859375 13.855469 C 19.457031 13.808594 19.457031 13.808594 19.042969 13.828125 C 18.796875 13.835938 18.554688 13.84375 18.300781 13.855469 C 18.300781 13.789062 18.300781 13.726562 18.300781 13.660156 C 18.480469 13.628906 18.480469 13.628906 18.664062 13.601562 C 19.664062 13.4375 19.664062 13.4375 20.453125 12.855469 C 20.515625 12.734375 20.574219 12.613281 20.636719 12.488281 Z M 20.636719 12.488281 "/>
<path style=" stroke:none;fill-rule:nonzero;fill:rgb(83.529412%,83.529412%,83.529412%);fill-opacity:1;" d="M 51.398438 12.488281 C 51.847656 12.488281 52.296875 12.488281 52.761719 12.488281 C 52.835938 12.8125 52.898438 13.136719 52.957031 13.464844 C 52.761719 13.660156 52.761719 13.660156 52.164062 13.671875 C 51.976562 13.667969 51.789062 13.664062 51.59375 13.660156 C 51.398438 12.707031 51.398438 12.707031 51.398438 12.488281 Z M 51.398438 12.488281 "/>
<path style=" stroke:none;fill-rule:nonzero;fill:rgb(27.45098%,27.45098%,27.45098%);fill-opacity:1;" d="M 51.910156 8.183594 C 52.203125 8.1875 52.203125 8.1875 52.5 8.1875 C 52.652344 8.191406 52.800781 8.191406 52.957031 8.195312 C 52.957031 8.257812 52.957031 8.324219 52.957031 8.390625 C 51.894531 8.488281 51.894531 8.488281 50.8125 8.585938 C 50.8125 8.90625 50.8125 9.230469 50.8125 9.5625 C 50.488281 9.5625 50.164062 9.5625 49.839844 9.5625 C 49.777344 10.011719 49.710938 10.460938 49.644531 10.925781 C 49.582031 10.925781 49.515625 10.925781 49.453125 10.925781 C 49.332031 9.515625 49.332031 9.515625 49.914062 8.792969 C 50.644531 8.214844 50.988281 8.171875 51.910156 8.183594 Z M 51.910156 8.183594 "/>
<path style=" stroke:none;fill-rule:nonzero;fill:rgb(98.431373%,98.431373%,98.431373%);fill-opacity:1;" d="M 33.488281 10.730469 C 34.320312 10.730469 35.15625 10.730469 36.019531 10.730469 C 36.019531 10.925781 36.019531 11.117188 36.019531 11.316406 C 35.117188 11.316406 34.21875 11.316406 33.292969 11.316406 C 33.355469 11.125 33.421875 10.929688 33.488281 10.730469 Z M 33.488281 10.730469 "/>
<path style=" stroke:none;fill-rule:nonzero;fill:rgb(1.960784%,1.960784%,1.960784%);fill-opacity:1;" d="M 43.027344 11.902344 C 43.347656 11.902344 43.667969 11.902344 44 11.902344 C 44.207031 12.257812 44.207031 12.257812 44.390625 12.683594 C 44.324219 12.875 44.261719 13.070312 44.195312 13.269531 C 43.808594 13.269531 43.421875 13.269531 43.027344 13.269531 C 43.027344 12.816406 43.027344 12.367188 43.027344 11.902344 Z M 43.027344 11.902344 "/>
<path style=" stroke:none;fill-rule:nonzero;fill:rgb(5.882353%,5.882353%,5.882353%);fill-opacity:1;" d="M 71.644531 13.464844 C 72.546875 13.464844 73.445312 13.464844 74.371094 13.464844 C 74.371094 13.980469 74.371094 14.492188 74.371094 15.023438 C 74.179688 14.960938 73.984375 14.894531 73.789062 14.828125 C 73.917969 14.828125 74.042969 14.828125 74.175781 14.828125 C 74.113281 14.636719 74.046875 14.441406 73.980469 14.242188 C 73.789062 14.371094 73.597656 14.5 73.398438 14.632812 C 73.332031 14.375 73.269531 14.117188 73.203125 13.855469 C 72.691406 13.789062 72.175781 13.726562 71.644531 13.660156 C 71.644531 13.59375 71.644531 13.53125 71.644531 13.464844 Z M 71.644531 13.464844 "/>
<path style=" stroke:none;fill-rule:nonzero;fill:rgb(96.470588%,96.470588%,96.470588%);fill-opacity:1;" d="M 18.105469 13.660156 C 18.75 13.660156 19.390625 13.660156 20.054688 13.660156 C 20.117188 13.917969 20.179688 14.171875 20.246094 14.4375 C 19.929688 14.449219 19.613281 14.457031 19.296875 14.464844 C 19.121094 14.46875 18.945312 14.472656 18.765625 14.476562 C 18.300781 14.4375 18.300781 14.4375 17.910156 14.046875 C 17.976562 13.921875 18.039062 13.792969 18.105469 13.660156 Z M 18.105469 13.660156 "/>
<path style=" stroke:none;fill-rule:nonzero;fill:rgb(98.431373%,98.431373%,98.431373%);fill-opacity:1;" d="M 84.496094 9.953125 C 84.742188 9.941406 84.984375 9.933594 85.238281 9.925781 C 85.375 9.921875 85.511719 9.917969 85.65625 9.914062 C 86.054688 9.953125 86.054688 9.953125 86.636719 10.339844 C 86.246094 10.730469 86.246094 10.730469 85.828125 10.769531 C 85.589844 10.761719 85.589844 10.761719 85.347656 10.757812 C 85.1875 10.753906 85.027344 10.75 84.863281 10.746094 C 84.742188 10.742188 84.621094 10.738281 84.496094 10.730469 C 84.496094 10.472656 84.496094 10.214844 84.496094 9.953125 Z M 84.496094 9.953125 "/>
<path style=" stroke:none;fill-rule:nonzero;fill:rgb(4.705882%,4.705882%,4.705882%);fill-opacity:1;" d="M 33.097656 11.511719 C 33.160156 11.511719 33.226562 11.511719 33.292969 11.511719 C 33.292969 11.898438 33.292969 12.285156 33.292969 12.683594 C 34.0625 12.683594 34.832031 12.683594 35.628906 12.683594 C 35.628906 12.746094 35.628906 12.8125 35.628906 12.878906 C 34.984375 12.878906 34.34375 12.878906 33.679688 12.878906 C 33.679688 13.136719 33.679688 13.394531 33.679688 13.660156 C 33.488281 13.660156 33.296875 13.660156 33.097656 13.660156 C 33.097656 12.949219 33.097656 12.242188 33.097656 11.511719 Z M 33.097656 11.511719 "/>
<path style=" stroke:none;fill-rule:nonzero;fill:rgb(19.607843%,19.607843%,19.607843%);fill-opacity:1;" d="M 78.847656 8.390625 C 80.09375 8.484375 80.09375 8.484375 80.6875 8.988281 C 80.835938 9.175781 80.835938 9.175781 80.992188 9.367188 C 80.796875 9.367188 80.605469 9.367188 80.40625 9.367188 C 80.34375 9.496094 80.277344 9.625 80.210938 9.757812 C 80.210938 9.628906 80.210938 9.5 80.210938 9.367188 C 80.019531 9.429688 79.828125 9.496094 79.628906 9.5625 C 79.609375 9.441406 79.589844 9.320312 79.566406 9.195312 C 79.457031 8.710938 79.457031 8.710938 78.847656 8.390625 Z M 78.847656 8.390625 "/>
<path style=" stroke:none;fill-rule:nonzero;fill:rgb(24.313725%,24.313725%,24.313725%);fill-opacity:1;" d="M 17.523438 14.046875 C 17.683594 14.097656 17.683594 14.097656 17.851562 14.144531 C 18.34375 14.253906 18.78125 14.261719 19.285156 14.257812 C 19.453125 14.253906 19.621094 14.253906 19.792969 14.25 C 20.019531 14.246094 20.019531 14.246094 20.246094 14.242188 C 20.441406 14.242188 20.632812 14.242188 20.832031 14.242188 C 20.832031 14.4375 20.832031 14.628906 20.832031 14.828125 C 20.445312 14.894531 20.0625 14.957031 19.664062 15.023438 C 19.664062 14.894531 19.664062 14.765625 19.664062 14.632812 C 19.082031 14.644531 19.082031 14.644531 18.503906 14.652344 C 18.105469 14.632812 18.105469 14.632812 17.523438 14.4375 C 17.523438 14.308594 17.523438 14.179688 17.523438 14.046875 Z M 17.523438 14.046875 "/>
<path style=" stroke:none;fill-rule:nonzero;fill:rgb(98.431373%,98.431373%,98.431373%);fill-opacity:1;" d="M 77.488281 10.144531 C 77.9375 10.144531 78.386719 10.144531 78.847656 10.144531 C 78.789062 10.511719 78.789062 10.511719 78.65625 10.925781 C 78.070312 11.316406 78.070312 11.316406 77.488281 11.316406 C 77.488281 10.929688 77.488281 10.542969 77.488281 10.144531 Z M 77.488281 10.144531 "/>
<path style=" stroke:none;fill-rule:nonzero;fill:rgb(72.156863%,72.156863%,72.156863%);fill-opacity:1;" d="M 44.195312 9.5625 C 44.644531 9.5625 45.09375 9.5625 45.558594 9.5625 C 45.558594 9.691406 45.558594 9.820312 45.558594 9.953125 C 45.429688 9.953125 45.300781 9.953125 45.167969 9.953125 C 45.167969 10.273438 45.167969 10.59375 45.167969 10.925781 C 44.976562 10.863281 44.78125 10.796875 44.585938 10.730469 C 44.585938 10.472656 44.585938 10.214844 44.585938 9.953125 C 44.457031 9.953125 44.328125 9.953125 44.195312 9.953125 C 44.195312 9.824219 44.195312 9.695312 44.195312 9.5625 Z M 44.195312 9.5625 "/>
<path style=" stroke:none;fill-rule:nonzero;fill:rgb(4.705882%,4.705882%,4.705882%);fill-opacity:1;" d="M 2.726562 20.292969 C 3.011719 20.808594 3.113281 21.050781 3.113281 21.660156 C 2.730469 21.660156 2.34375 21.660156 1.945312 21.660156 C 1.945312 21.335938 1.945312 21.015625 1.945312 20.683594 C 2.203125 20.554688 2.460938 20.425781 2.726562 20.292969 Z M 2.726562 20.292969 "/>
<path style=" stroke:none;fill-rule:nonzero;fill:rgb(26.27451%,26.27451%,26.27451%);fill-opacity:1;" d="M 44.585938 10.730469 C 44.839844 10.796875 45.097656 10.859375 45.363281 10.925781 C 45.296875 11.183594 45.234375 11.441406 45.167969 11.707031 C 44.460938 11.515625 43.753906 11.320312 43.027344 11.121094 C 43.746094 10.941406 43.929688 10.910156 44.585938 11.121094 C 44.585938 10.992188 44.585938 10.863281 44.585938 10.730469 Z M 44.585938 10.730469 "/>
<path style=" stroke:none;fill-rule:nonzero;fill:rgb(98.431373%,98.431373%,98.431373%);fill-opacity:1;" d="M 57.824219 10.144531 C 58.078125 10.210938 58.335938 10.273438 58.601562 10.339844 C 58.539062 10.40625 58.472656 10.46875 58.40625 10.535156 C 58.488281 10.9375 58.488281 10.9375 58.601562 11.316406 C 58.34375 11.382812 58.085938 11.445312 57.824219 11.511719 C 57.824219 11.0625 57.824219 10.609375 57.824219 10.144531 Z M 57.824219 10.144531 "/>
<path style=" stroke:none;fill-rule:nonzero;fill:rgb(3.137255%,3.137255%,3.137255%);fill-opacity:1;" d="M 17.328125 14.4375 C 17.96875 14.503906 18.613281 14.566406 19.273438 14.632812 C 19.015625 14.890625 18.761719 15.148438 18.496094 15.414062 C 18.496094 15.285156 18.496094 15.15625 18.496094 15.023438 C 18.175781 15.023438 17.851562 15.023438 17.523438 15.023438 C 17.457031 14.832031 17.394531 14.636719 17.328125 14.4375 Z M 17.328125 14.4375 "/>
<path style=" stroke:none;fill-rule:nonzero;fill:rgb(82.745098%,82.745098%,82.745098%);fill-opacity:1;" d="M 17.523438 12.878906 C 17.828125 13.121094 17.828125 13.121094 18.105469 13.464844 C 18.046875 13.890625 18.046875 13.890625 17.910156 14.242188 C 17.429688 14.050781 17.429688 14.050781 16.9375 13.855469 C 16.9375 13.464844 16.9375 13.464844 17.230469 13.144531 C 17.328125 13.058594 17.421875 12.96875 17.523438 12.878906 Z M 17.523438 12.878906 "/>
<path style=" stroke:none;fill-rule:nonzero;fill:rgb(12.156863%,12.156863%,12.156863%);fill-opacity:1;" d="M 19.46875 13.074219 C 19.535156 13.265625 19.597656 13.460938 19.664062 13.660156 C 19.414062 13.671875 19.164062 13.683594 18.910156 13.695312 C 18.769531 13.703125 18.628906 13.707031 18.484375 13.714844 C 18.359375 13.695312 18.234375 13.679688 18.105469 13.660156 C 17.976562 13.464844 17.847656 13.273438 17.71875 13.074219 C 18.394531 12.847656 18.78125 12.933594 19.46875 13.074219 Z M 19.46875 13.074219 "/>
<path style=" stroke:none;fill-rule:nonzero;fill:rgb(75.294118%,75.294118%,75.294118%);fill-opacity:1;" d="M 80.796875 11.902344 C 81.035156 12.382812 81.003906 12.738281 80.992188 13.269531 C 80.863281 13.269531 80.734375 13.269531 80.601562 13.269531 C 80.539062 13.398438 80.472656 13.527344 80.40625 13.660156 C 80.34375 13.273438 80.277344 12.886719 80.210938 12.488281 C 80.339844 12.488281 80.46875 12.488281 80.601562 12.488281 C 80.667969 12.292969 80.730469 12.101562 80.796875 11.902344 Z M 80.796875 11.902344 "/>
<path style=" stroke:none;fill-rule:nonzero;fill:rgb(87.45098%,87.45098%,87.45098%);fill-opacity:1;" d="M 51.398438 9.757812 C 51.785156 9.757812 52.167969 9.757812 52.566406 9.757812 C 52.371094 10.339844 52.371094 10.339844 51.96875 10.574219 C 51.84375 10.625 51.722656 10.679688 51.59375 10.730469 C 51.527344 10.410156 51.464844 10.085938 51.398438 9.757812 Z M 51.398438 9.757812 "/>
<path style=" stroke:none;fill-rule:nonzero;fill:rgb(85.882353%,85.882353%,85.882353%);fill-opacity:1;" d="M 74.371094 13.464844 C 74.4375 13.464844 74.5 13.464844 74.566406 13.464844 C 74.628906 13.785156 74.695312 14.105469 74.761719 14.4375 C 74.890625 14.308594 75.019531 14.179688 75.152344 14.046875 C 75.152344 14.371094 75.152344 14.691406 75.152344 15.023438 C 74.957031 15.121094 74.957031 15.121094 74.761719 15.21875 C 74.632812 15.15625 74.503906 15.089844 74.371094 15.023438 C 74.371094 14.507812 74.371094 13.996094 74.371094 13.464844 Z M 74.371094 13.464844 "/>
<path style=" stroke:none;fill-rule:nonzero;fill:rgb(86.666667%,86.666667%,86.666667%);fill-opacity:1;" d="M 73.980469 10.925781 C 74.046875 10.925781 74.109375 10.925781 74.175781 10.925781 C 74.214844 11.164062 74.214844 11.164062 74.25 11.402344 C 74.289062 11.566406 74.332031 11.734375 74.371094 11.902344 C 74.5 11.96875 74.628906 12.03125 74.761719 12.097656 C 74.566406 12.488281 74.566406 12.488281 73.789062 12.878906 C 73.851562 12.234375 73.917969 11.589844 73.980469 10.925781 Z M 73.980469 10.925781 "/>
<path style=" stroke:none;fill-rule:nonzero;fill:rgb(13.333333%,13.333333%,13.333333%);fill-opacity:1;" d="M 25.113281 9.367188 C 25.515625 9.707031 25.515625 9.707031 25.894531 10.144531 C 25.84375 10.585938 25.84375 10.585938 25.699219 10.925781 C 25.507812 10.863281 25.3125 10.796875 25.113281 10.730469 C 25.113281 10.28125 25.113281 9.832031 25.113281 9.367188 Z M 25.113281 9.367188 "/>
<path style=" stroke:none;fill-rule:nonzero;fill:rgb(8.235294%,8.235294%,8.235294%);fill-opacity:1;" d="M 44 11.902344 C 44.480469 12 44.480469 12 44.972656 12.097656 C 44.910156 12.355469 44.84375 12.613281 44.777344 12.878906 C 44.390625 12.609375 44.390625 12.609375 44 12.292969 C 44 12.164062 44 12.035156 44 11.902344 Z M 44 11.902344 "/>
</g>
</svg>
